<svg xmlns="http://www.w3.org/2000/svg" width="373" height="77" viewBox="0 0 373 77">
  <g id="DropCam" transform="translate(-762 320)">
    <text id="DROP_CAM" data-name="DROP CAM" transform="translate(762 -259)" fill="#006fa4" font-size="63" font-family="Montserrat-ExtraBold, Montserrat" font-weight="800"><tspan x="0" y="0">DROP CAM</tspan></text>
    <circle id="Elipse_4" data-name="Elipse 4" cx="25.5" cy="25.5" r="25.5" transform="translate(862 -305)" fill="#262626"/>
    <path id="Caminho_1" data-name="Caminho 1" d="M-.846-.4,11.728,3.527l2.084,25.9L1.1,39.779Z" transform="translate(904.626 -291.46) rotate(34)"/>
    <g id="Elipse_2" data-name="Elipse 2" transform="translate(862 -305)" fill="none" stroke="#006fa4" stroke-width="5">
      <circle cx="25.5" cy="25.5" r="25.5" stroke="none"/>
      <circle cx="25.5" cy="25.5" r="23" fill="none"/>
    </g>
    <g id="Caminho_2" data-name="Caminho 2" transform="translate(879 -288)">
      <path d="M 9 16.5 C 4.864490032196045 16.5 1.5 13.13551044464111 1.5 9 C 1.5 4.864490032196045 4.864490032196045 1.5 9 1.5 C 13.13551044464111 1.5 16.5 4.864490032196045 16.5 9 C 16.5 13.13551044464111 13.13551044464111 16.5 9 16.5 Z" stroke="none"/>
      <path d="M 9 3 C 5.691590309143066 3 3 5.691590309143066 3 9 C 3 12.30841064453125 5.691590309143066 15 9 15 C 12.30841064453125 15 15 12.30841064453125 15 9 C 15 5.691590309143066 12.30841064453125 3 9 3 M 9 0 C 13.97056007385254 0 18 4.029439926147461 18 9 C 18 13.97056007385254 13.97056007385254 18 9 18 C 4.029439926147461 18 0 13.97056007385254 0 9 C 0 4.029439926147461 4.029439926147461 0 9 0 Z" stroke="none" fill="#585858"/>
    </g>
    <g id="Elipse_3" data-name="Elipse 3" transform="translate(879 -288)" fill="none" stroke="#afafaf" stroke-width="1">
      <circle cx="9" cy="9" r="9" stroke="none"/>
      <circle cx="9" cy="9" r="8.5" fill="none"/>
    </g>
    <circle id="Elipse_5" data-name="Elipse 5" cx="2" cy="2" r="2" transform="translate(888 -279)" fill="#fff" opacity="0.8"/>
  </g>
</svg>
